<?xml version="1.0" standalone="no"?>
<!DOCTYPE svg PUBLIC "-//W3C//DTD SVG 20010904//EN"
 "http://www.w3.org/TR/2001/REC-SVG-20010904/DTD/svg10.dtd">
<svg version="1.0" xmlns="http://www.w3.org/2000/svg"
 width="404.000000pt" height="337.000000pt" viewBox="0 0 404.000000 337.000000"
 preserveAspectRatio="xMidYMid meet">
<metadata>
Created by potrace 1.15, written by Peter Selinger 2001-2017
</metadata>
<g transform="translate(0.000000,337.000000) scale(0.100000,-0.100000)"
fill="#ffffff" stroke="none">
<path d="M0 1685 l0 -1685 2020 0 2020 0 0 1685 0 1685 -2020 0 -2020 0 0
-1685z m1790 973 l-1 -313 -22 30 c-94 128 -195 192 -362 226 -130 27 -304 22
-410 -11 -216 -68 -373 -232 -454 -475 -51 -153 -61 -246 -61 -575 0 -333 10
-424 63 -580 44 -130 96 -219 177 -304 111 -116 229 -173 403 -196 139 -19
322 9 443 66 59 28 152 107 196 168 l28 39 0 -235 0 -236 -192 -7 c-280 -10
-1335 -2 -1346 10 -6 6 -12 549 -15 1358 l-5 1347 779 0 779 0 0 -312z m2013
272 c29 -122 40 -569 18 -739 -14 -109 -12 -235 8 -545 11 -160 10 -172 -9
-223 -24 -63 -25 -115 -6 -171 16 -44 10 -137 -19 -332 -13 -87 -15 -153 -9
-382 l7 -278 -787 0 -787 0 4 768 c4 843 3 834 67 969 40 87 73 126 142 173
83 55 169 80 279 80 197 0 312 -99 371 -318 17 -64 21 -118 25 -324 12 -554
-56 -694 -374 -768 -143 -33 -203 -87 -203 -181 0 -82 33 -137 97 -164 60 -25
179 -36 270 -25 312 39 509 238 604 610 20 76 22 118 26 405 5 345 -1 439 -42
580 -80 273 -232 446 -459 522 -74 25 -95 27 -236 27 -131 1 -167 -3 -233 -22
-138 -40 -233 -103 -309 -206 l-28 -39 0 312 0 311 787 -2 787 -3 9 -35z
m-2354 -699 c255 -79 354 -301 338 -756 -10 -305 -64 -460 -192 -557 -88 -67
-142 -83 -285 -83 -118 0 -128 2 -178 28 -105 55 -174 156 -209 305 -26 110
-26 629 0 742 36 157 123 278 229 319 72 27 213 28 297 2z"/>
</g>
</svg>
